# xmcd CD database file
#
# Track frame offsets:
#	150
#	18228
#	34304
#	50786
#	66963
#	81635
#	97735
#	111860
#	127335
#	143034
#	162604
#	179216
#	196741
#	215916
#	233203
#	248553
#	264459
#	279061
#	296498
#	313708
#
# Disc length: 4403 seconds
#
# Revision: 0
# Processed by: cddbd v1.5.1PL2 Copyright (c) Steve Scherf et al.
# Submitted via: CDex 1.51
#
DISCID=36113114
DTITLE=Various Artist - Deep Heat The 4th Attack CD 2
DYEAR=1999
DGENRE=Mix
TTITLE0=Andru Donalds - All out of Love
TTITLE1=Phats ´n´Small - Turn Around
TTITLE2=Cassius - Feeling for you
TTITLE3=Wamdue Project - King of my Castle
TTITLE4=Shanks - Sweet like Chocolate
TTITLE5=Ritmo Ritmo - Matador
TTITLE6=Kiki - Papaya Coconut
TTITLE7=Passion Fruit - The Rigga Ding Dong Song
TTITLE8=Will Smith - Wild Wild West
TTITLE9=Mase - Get Ready
TTITLE10=Sandra - Secret Land
TTITLE11=E-Type - Her i go again
TTITLE12=Nek - Se una regola ce 
TTITLE13=Ann Lee - 2 Times
TTITLE14=Junia - It´s Funny
TTITLE15=Toy Box - Best Friend
TTITLE16=Sidestep - I Like it
TTITLE17=The Poco Loco Gang - Poco Loco
TTITLE18=Buzzy Bus - You don´t Stop
TTITLE19=Cosmic Gate - The Drums
EXTD=YEAR: 1999
EXTT0=
EXTT1=
EXTT2=
EXTT3=
EXTT4=
EXTT5=
EXTT6=
EXTT7=
EXTT8=
EXTT9=
EXTT10=
EXTT11=
EXTT12=
EXTT13=
EXTT14=
EXTT15=
EXTT16=
EXTT17=
EXTT18=
EXTT19=
PLAYORDER=
